<mxfile host="app.diagrams.net" agent="Mozilla/5.0 (Windows NT 10.0; Win64; x64) AppleWebKit/537.36 (KHTML, like Gecko) Chrome/141.0.0.0 Safari/537.36" version="28.2.5">
  <diagram name="Página-1" id="rxEMhS-7PPw1VCam6miD">
    <mxGraphModel dx="1426" dy="777" grid="1" gridSize="10" guides="1" tooltips="1" connect="1" arrows="1" fold="1" page="1" pageScale="1" pageWidth="827" pageHeight="1169" math="0" shadow="0">
      <root>
        <mxCell id="0" />
        <mxCell id="1" parent="0" />
        <mxCell id="3TQzUOJ-lrTx-xodaRS--1" value="" style="edgeStyle=orthogonalEdgeStyle;rounded=0;orthogonalLoop=1;jettySize=auto;html=1;" edge="1" parent="1" source="3TQzUOJ-lrTx-xodaRS--3" target="3TQzUOJ-lrTx-xodaRS--4">
          <mxGeometry relative="1" as="geometry" />
        </mxCell>
        <mxCell id="3TQzUOJ-lrTx-xodaRS--2" value="" style="edgeStyle=orthogonalEdgeStyle;rounded=0;orthogonalLoop=1;jettySize=auto;html=1;" edge="1" parent="1" source="3TQzUOJ-lrTx-xodaRS--3" target="3TQzUOJ-lrTx-xodaRS--10">
          <mxGeometry relative="1" as="geometry" />
        </mxCell>
        <mxCell id="3TQzUOJ-lrTx-xodaRS--3" value="Cliente" style="shape=umlActor;verticalLabelPosition=bottom;verticalAlign=top;html=1;align=center;" vertex="1" parent="1">
          <mxGeometry x="340" y="180" width="40" height="80" as="geometry" />
        </mxCell>
        <mxCell id="3TQzUOJ-lrTx-xodaRS--4" value="" style="ellipse;whiteSpace=wrap;html=1;verticalAlign=top;" vertex="1" parent="1">
          <mxGeometry x="430" y="195" width="80" height="50" as="geometry" />
        </mxCell>
        <mxCell id="3TQzUOJ-lrTx-xodaRS--5" value="Fazer Pedido" style="text;html=1;align=center;verticalAlign=middle;whiteSpace=wrap;rounded=0;" vertex="1" parent="1">
          <mxGeometry x="440" y="205" width="60" height="30" as="geometry" />
        </mxCell>
        <mxCell id="3TQzUOJ-lrTx-xodaRS--6" value="" style="ellipse;whiteSpace=wrap;html=1;verticalAlign=top;" vertex="1" parent="1">
          <mxGeometry x="620" y="195" width="80" height="50" as="geometry" />
        </mxCell>
        <mxCell id="3TQzUOJ-lrTx-xodaRS--7" value="&amp;lt;&amp;lt;include&amp;gt;&amp;gt;" style="endArrow=open;endSize=12;dashed=1;html=1;rounded=0;exitX=1;exitY=0.5;exitDx=0;exitDy=0;entryX=0;entryY=0.5;entryDx=0;entryDy=0;" edge="1" parent="1" source="3TQzUOJ-lrTx-xodaRS--4" target="3TQzUOJ-lrTx-xodaRS--6">
          <mxGeometry width="160" relative="1" as="geometry">
            <mxPoint x="330" y="285" as="sourcePoint" />
            <mxPoint x="490" y="285" as="targetPoint" />
          </mxGeometry>
        </mxCell>
        <mxCell id="3TQzUOJ-lrTx-xodaRS--8" value="Pagar Conta" style="text;html=1;align=center;verticalAlign=middle;whiteSpace=wrap;rounded=0;" vertex="1" parent="1">
          <mxGeometry x="630" y="205" width="60" height="30" as="geometry" />
        </mxCell>
        <mxCell id="3TQzUOJ-lrTx-xodaRS--9" value="Garçom" style="shape=umlActor;verticalLabelPosition=bottom;verticalAlign=top;html=1;outlineConnect=0;" vertex="1" parent="1">
          <mxGeometry x="330" y="305" width="40" height="80" as="geometry" />
        </mxCell>
        <mxCell id="3TQzUOJ-lrTx-xodaRS--10" value="" style="ellipse;whiteSpace=wrap;html=1;verticalAlign=top;" vertex="1" parent="1">
          <mxGeometry x="220" y="190" width="80" height="60" as="geometry" />
        </mxCell>
        <mxCell id="3TQzUOJ-lrTx-xodaRS--11" value="Visualizar Cardápio" style="text;html=1;align=center;verticalAlign=middle;whiteSpace=wrap;rounded=0;" vertex="1" parent="1">
          <mxGeometry x="230" y="205" width="60" height="30" as="geometry" />
        </mxCell>
        <mxCell id="3TQzUOJ-lrTx-xodaRS--12" value="" style="ellipse;whiteSpace=wrap;html=1;verticalAlign=top;" vertex="1" parent="1">
          <mxGeometry x="530" y="320" width="80" height="50" as="geometry" />
        </mxCell>
        <mxCell id="3TQzUOJ-lrTx-xodaRS--13" value="Entregar Pedido" style="text;html=1;align=center;verticalAlign=middle;whiteSpace=wrap;rounded=0;" vertex="1" parent="1">
          <mxGeometry x="540" y="330" width="60" height="30" as="geometry" />
        </mxCell>
        <mxCell id="3TQzUOJ-lrTx-xodaRS--14" value="" style="endArrow=classic;html=1;rounded=0;entryX=0;entryY=0.5;entryDx=0;entryDy=0;exitX=1;exitY=0.5;exitDx=0;exitDy=0;" edge="1" parent="1" source="3TQzUOJ-lrTx-xodaRS--15" target="3TQzUOJ-lrTx-xodaRS--12">
          <mxGeometry width="50" height="50" relative="1" as="geometry">
            <mxPoint x="410" y="275" as="sourcePoint" />
            <mxPoint x="460" y="225" as="targetPoint" />
          </mxGeometry>
        </mxCell>
        <mxCell id="3TQzUOJ-lrTx-xodaRS--15" value="" style="ellipse;whiteSpace=wrap;html=1;" vertex="1" parent="1">
          <mxGeometry x="420" y="320" width="80" height="50" as="geometry" />
        </mxCell>
        <mxCell id="3TQzUOJ-lrTx-xodaRS--16" value="" style="endArrow=classic;html=1;rounded=0;entryX=0;entryY=0.5;entryDx=0;entryDy=0;" edge="1" parent="1" source="3TQzUOJ-lrTx-xodaRS--9" target="3TQzUOJ-lrTx-xodaRS--15">
          <mxGeometry width="50" height="50" relative="1" as="geometry">
            <mxPoint x="410" y="325" as="sourcePoint" />
            <mxPoint x="460" y="275" as="targetPoint" />
          </mxGeometry>
        </mxCell>
        <mxCell id="3TQzUOJ-lrTx-xodaRS--17" value="&lt;font style=&quot;font-size: 6px;&quot;&gt;Fazer Pedido Por Outra Pessoa&lt;/font&gt;" style="text;html=1;align=center;verticalAlign=middle;whiteSpace=wrap;rounded=0;" vertex="1" parent="1">
          <mxGeometry x="430" y="330" width="60" height="30" as="geometry" />
        </mxCell>
      </root>
    </mxGraphModel>
  </diagram>
</mxfile>
